<svg width="25" height="26" viewBox="0 0 25 26" fill="none" xmlns="http://www.w3.org/2000/svg">
<g clip-path="url(#clip0_808_1015)">
<path d="M2.03516 9.25391C2.78516 9.25391 3.18359 8.84375 3.18359 8.09375V5.44531C3.18359 4.30859 3.78125 3.74609 4.87109 3.74609H7.57812C8.32812 3.74609 8.73828 3.33594 8.73828 2.59766C8.73828 1.85938 8.32812 1.44922 7.57812 1.44922H4.73047C2.19922 1.44922 0.886719 2.75 0.886719 5.24609V8.09375C0.886719 8.84375 1.29687 9.25391 2.03516 9.25391ZM22.9531 9.25391C23.7031 9.25391 24.1016 8.84375 24.1016 8.09375V5.24609C24.1016 2.75 22.7891 1.44922 20.2578 1.44922H17.4102C16.6602 1.44922 16.25 1.85938 16.25 2.59766C16.25 3.33594 16.6602 3.74609 17.4102 3.74609H20.1172C21.1953 3.74609 21.8047 4.30859 21.8047 5.44531V8.09375C21.8047 8.84375 22.2148 9.25391 22.9531 9.25391ZM4.73047 24.6641H7.57812C8.32812 24.6641 8.73828 24.2539 8.73828 23.5156C8.73828 22.7773 8.32812 22.3672 7.57812 22.3672H4.87109C3.78125 22.3672 3.18359 21.8047 3.18359 20.6562V18.0078C3.18359 17.2578 2.77344 16.8477 2.03516 16.8477C1.28516 16.8477 0.886719 17.2578 0.886719 18.0078V20.8555C0.886719 23.3633 2.19922 24.6641 4.73047 24.6641ZM17.4102 24.6641H20.2578C22.7891 24.6641 24.1016 23.3633 24.1016 20.8555V18.0078C24.1016 17.2578 23.6914 16.8477 22.9531 16.8477C22.2031 16.8477 21.8047 17.2695 21.8047 18.0078V20.6562C21.8047 21.8047 21.1953 22.3672 20.1172 22.3672H17.4102C16.6602 22.3672 16.25 22.7773 16.25 23.5156C16.25 24.2539 16.6602 24.6641 17.4102 24.6641Z" fill="black" fill-opacity="0.4"/>
<path d="M11.9622 18.9531C11.9622 19.2578 12.2083 19.4804 12.513 19.4804C15.595 19.4804 18.4661 17.582 19.4036 14.875C19.556 14.4765 19.3919 14.1836 18.9466 14.1836C16.2044 14.1836 14.095 15.6367 13.0638 17.6523V12.9414C15.1614 12.6953 16.4974 11.0078 16.4974 8.96875C16.4974 8.30078 16.3802 7.6211 16.0638 6.95313C15.9232 6.625 15.5247 6.56641 15.2669 6.83594L13.9896 8.13672L12.8997 6.73047C12.7005 6.44922 12.3372 6.44922 12.1263 6.73047L11.0364 8.13672L9.75913 6.83594C9.50132 6.56641 9.10288 6.625 8.96226 6.95313C8.65757 7.6211 8.51695 8.30078 8.51695 8.96875C8.51695 11.0078 9.8646 12.6953 11.9622 12.9414V18.9531ZM11.2122 16.5976C10.0872 15.1679 8.28257 14.1836 6.05601 14.1836C5.62242 14.1836 5.44663 14.4765 5.59898 14.875C6.40757 17.2187 8.65757 18.9531 11.2825 19.3515C11.2357 19.2343 11.2122 19.0937 11.2122 18.9531V16.5976Z" fill="black" fill-opacity="0.4"/>
</g>
<defs>
<clipPath id="clip0_808_1015">
<rect width="24" height="25" fill="white" transform="translate(0.5 0.5)"/>
</clipPath>
</defs>
</svg>
