<svg width="25" height="26" viewBox="0 0 25 26" fill="none" xmlns="http://www.w3.org/2000/svg">
<g clip-path="url(#clip0_828_1177)">
<path d="M2.03516 9.25391C2.78516 9.25391 3.18359 8.84375 3.18359 8.09375V5.44531C3.18359 4.30859 3.78125 3.74609 4.87109 3.74609H7.57812C8.32812 3.74609 8.73828 3.33594 8.73828 2.59766C8.73828 1.85938 8.32812 1.44922 7.57812 1.44922H4.73047C2.19922 1.44922 0.886719 2.75 0.886719 5.24609V8.09375C0.886719 8.84375 1.29687 9.25391 2.03516 9.25391ZM22.9531 9.25391C23.7031 9.25391 24.1016 8.84375 24.1016 8.09375V5.24609C24.1016 2.75 22.7891 1.44922 20.2578 1.44922H17.4102C16.6602 1.44922 16.25 1.85938 16.25 2.59766C16.25 3.33594 16.6602 3.74609 17.4102 3.74609H20.1172C21.1953 3.74609 21.8047 4.30859 21.8047 5.44531V8.09375C21.8047 8.84375 22.2148 9.25391 22.9531 9.25391ZM4.73047 24.6641H7.57812C8.32812 24.6641 8.73828 24.2539 8.73828 23.5156C8.73828 22.7773 8.32812 22.3672 7.57812 22.3672H4.87109C3.78125 22.3672 3.18359 21.8047 3.18359 20.6562V18.0078C3.18359 17.2578 2.77344 16.8477 2.03516 16.8477C1.28516 16.8477 0.886719 17.2578 0.886719 18.0078V20.8555C0.886719 23.3633 2.19922 24.6641 4.73047 24.6641ZM17.4102 24.6641H20.2578C22.7891 24.6641 24.1016 23.3633 24.1016 20.8555V18.0078C24.1016 17.2578 23.6914 16.8477 22.9531 16.8477C22.2031 16.8477 21.8047 17.2695 21.8047 18.0078V20.6562C21.8047 21.8047 21.1953 22.3672 20.1172 22.3672H17.4102C16.6602 22.3672 16.25 22.7773 16.25 23.5156C16.25 24.2539 16.6602 24.6641 17.4102 24.6641Z" fill="#B3D7BD"/>
<path d="M11.9622 18.9536C11.9622 19.2583 12.2083 19.4809 12.513 19.4809C15.595 19.4809 18.4661 17.5825 19.4036 14.8755C19.556 14.477 19.3919 14.1841 18.9466 14.1841C16.2044 14.1841 14.095 15.6372 13.0638 17.6528V12.9419C15.1614 12.6958 16.4974 11.0083 16.4974 8.96924C16.4974 8.30127 16.3802 7.62159 16.0638 6.95362C15.9232 6.62549 15.5247 6.5669 15.2669 6.83643L13.9896 8.13721L12.8997 6.73096C12.7005 6.44971 12.3372 6.44971 12.1263 6.73096L11.0364 8.13721L9.75913 6.83643C9.50132 6.5669 9.10288 6.62549 8.96226 6.95362C8.65757 7.62159 8.51695 8.30127 8.51695 8.96924C8.51695 11.0083 9.8646 12.6958 11.9622 12.9419V18.9536ZM11.2122 16.5981C10.0872 15.1684 8.28257 14.1841 6.05601 14.1841C5.62242 14.1841 5.44663 14.477 5.59898 14.8755C6.40757 17.2192 8.65757 18.9536 11.2825 19.352C11.2357 19.2348 11.2122 19.0942 11.2122 18.9536V16.5981Z" fill="#007B21"/>
</g>
<defs>
<clipPath id="clip0_828_1177">
<rect width="24" height="25" fill="white" transform="translate(0.5 0.5)"/>
</clipPath>
</defs>
</svg>
