<svg width="25" height="26" viewBox="0 0 25 26" fill="none" xmlns="http://www.w3.org/2000/svg">
<g clip-path="url(#clip0_808_1009)">
<path d="M12.5 25.1445C19.1211 25.1445 24.6055 19.6719 24.6055 13.0391C24.6055 6.41797 19.1211 0.933594 12.4883 0.933594C5.86719 0.933594 0.394531 6.41797 0.394531 13.0391C0.394531 19.6719 5.87891 25.1445 12.5 25.1445ZM12.5 22.7656C7.10938 22.7656 2.78516 18.4297 2.78516 13.0391C2.78516 7.64844 7.09766 3.32422 12.4883 3.32422C17.8789 3.32422 22.2148 7.64844 22.2266 13.0391C22.2266 18.4297 17.8906 22.7656 12.5 22.7656Z" fill="#B3D7BD"/>
<path d="M6.57031 14.4922H12.4883C13.0156 14.4922 13.4258 14.082 13.4258 13.5664V5.87891C13.4258 5.36328 13.0156 4.95312 12.4883 4.95312C11.9727 4.95312 11.5625 5.36328 11.5625 5.87891V12.6406H6.57031C6.04297 12.6406 5.64453 13.0391 5.64453 13.5664C5.64453 14.082 6.04297 14.4922 6.57031 14.4922Z" fill="#007B21"/>
</g>
<defs>
<clipPath id="clip0_808_1009">
<rect width="25" height="25" fill="white" transform="translate(0 0.5)"/>
</clipPath>
</defs>
</svg>
