<svg width="27" height="28" viewBox="0 0 27 28" fill="none" xmlns="http://www.w3.org/2000/svg">
<g clip-path="url(#clip0_828_3779)">
<path d="M12.3164 26.7539H14.6836C15.6562 26.7539 16.418 26.1562 16.6406 25.2305L17.1211 23.1562L17.4258 23.0391L19.2305 24.1523C20.0508 24.668 21.0117 24.5391 21.6914 23.8477L23.332 22.207C24.0352 21.5156 24.1523 20.5547 23.6367 19.7461L22.5234 17.9531L22.6289 17.6602L24.7031 17.1797C25.6172 16.9453 26.2266 16.1836 26.2266 15.2227V12.9141C26.2266 11.9531 25.6289 11.1914 24.7031 10.957L22.6523 10.4648L22.5352 10.1602L23.6484 8.36719C24.1641 7.55859 24.0352 6.60938 23.3438 5.89453L21.7031 4.25391C21.0234 3.57422 20.0625 3.44531 19.2539 3.94922L17.4492 5.05078L17.1211 4.92188L16.6406 2.84766C16.418 1.92188 15.6562 1.32422 14.6836 1.32422H12.3164C11.332 1.32422 10.582 1.92188 10.3594 2.84766L9.87891 4.92188L9.55078 5.05078L7.74609 3.94922C6.92578 3.44531 5.96484 3.57422 5.28516 4.25391L3.64453 5.89453C2.95312 6.60938 2.82422 7.55859 3.33984 8.36719L4.46484 10.1602L4.33594 10.4648L2.29688 10.957C1.35937 11.1914 0.773438 11.9531 0.773438 12.9141V15.2227C0.773438 16.1836 1.37109 16.9453 2.29688 17.1797L4.35938 17.6602L4.47656 17.9531L3.35156 19.7461C2.83594 20.5547 2.96484 21.5156 3.65625 22.207L5.29688 23.8477C5.98828 24.5391 6.94922 24.668 7.75781 24.1523L9.5625 23.0391L9.87891 23.1562L10.3594 25.2305C10.582 26.1562 11.332 26.7539 12.3164 26.7539ZM12.5977 24.6328C12.3984 24.6328 12.3047 24.5391 12.2695 24.3633L11.5781 21.4805C10.8281 21.3047 10.125 21.0117 9.55078 20.6484L7.01953 22.207C6.87891 22.3008 6.73828 22.2891 6.58594 22.1484L5.34375 20.9062C5.21484 20.7773 5.20312 20.6367 5.30859 20.4844L6.86719 17.9531C6.53906 17.4023 6.22266 16.6992 6.04688 15.9609L3.15234 15.2695C2.97656 15.2344 2.89453 15.1406 2.89453 14.9414V13.1836C2.89453 12.9727 2.97656 12.8906 3.15234 12.8438L6.04688 12.1641C6.22266 11.3789 6.5625 10.6523 6.84375 10.1484L5.29688 7.62891C5.19141 7.46484 5.19141 7.32422 5.33203 7.18359L6.57422 5.95312C6.72656 5.82422 6.84375 5.80078 7.01953 5.89453L9.53906 7.42969C10.0664 7.11328 10.8398 6.78516 11.5781 6.59766L12.2695 3.71484C12.3047 3.53906 12.3984 3.44531 12.5977 3.44531H14.4023C14.6016 3.44531 14.6953 3.52734 14.7188 3.71484L15.4219 6.62109C16.1836 6.79688 16.875 7.11328 17.4492 7.44141L19.9688 5.90625C20.1445 5.8125 20.2617 5.82422 20.4023 5.96484L21.6562 7.19531C21.7969 7.32422 21.7969 7.46484 21.6914 7.62891L20.1445 10.1484C20.4258 10.6523 20.7773 11.3789 20.9531 12.1641L23.8359 12.8438C24.0234 12.8906 24.1055 12.9727 24.1055 13.1836V14.9414C24.1055 15.1406 24.0117 15.2344 23.8359 15.2695L20.9414 15.9609C20.7656 16.6992 20.4492 17.4023 20.1328 17.9531L21.6797 20.4844C21.7734 20.6367 21.7734 20.7773 21.6445 20.8945L20.4023 22.1484C20.25 22.2891 20.1094 22.3008 19.9688 22.207L17.4375 20.6484C16.8633 21.0117 16.1953 21.3047 15.4219 21.4805L14.7188 24.3633C14.6953 24.5508 14.6016 24.6328 14.4023 24.6328H12.5977Z" fill="#B3D7BD"/>
<path d="M13.5 18.4922C15.9375 18.4922 17.9414 16.4883 17.9414 14.0391C17.9414 11.6133 15.9375 9.60938 13.5 9.60938C11.0625 9.60938 9.04688 11.6133 9.04688 14.0391C9.04688 16.4883 11.0508 18.4922 13.5 18.4922ZM13.5 16.4883C12.1641 16.4883 11.0625 15.3867 11.0625 14.0391C11.0625 12.7148 12.1641 11.625 13.5 11.625C14.8125 11.625 15.9023 12.7148 15.9023 14.0391C15.9023 15.375 14.8125 16.4883 13.5 16.4883Z" fill="#007B21"/>
<path d="M13.5 16.4883C12.1641 16.4883 11.0625 15.3867 11.0625 14.0391C11.0625 12.7148 12.1641 11.625 13.5 11.625C14.8125 11.625 15.9023 12.7148 15.9023 14.0391C15.9023 15.375 14.8125 16.4883 13.5 16.4883Z" fill="#007B21"/>
</g>
<defs>
<clipPath id="clip0_828_3779">
<rect width="26" height="27" fill="white" transform="translate(0.5 0.5)"/>
</clipPath>
</defs>
</svg>
