<svg width="25" height="20" viewBox="0 0 25 20" fill="none" xmlns="http://www.w3.org/2000/svg">
<path d="M2.34192 14.4508C2.68282 16.3212 3.77927 17.0859 5.68653 16.7542L5.88002 16.7266V16.8095C5.88002 18.7167 6.83825 19.6658 8.77315 19.6658H21.3592C23.2757 19.6658 24.2431 18.7075 24.2431 16.8095V8.12085C24.2431 6.2228 23.2757 5.26456 21.3592 5.26456H19.2769L18.8162 2.72155C18.4845 0.851155 17.3788 0.0771941 15.4808 0.408892L3.18037 2.57413C1.28233 2.91505 0.499154 4.02071 0.830851 5.89111L2.34192 14.4508ZM3.78848 14.119L2.30506 5.71605C2.13921 4.76702 2.55383 4.18656 3.466 4.02992L15.7111 1.87389C16.6049 1.71725 17.2038 2.10424 17.3788 3.05326L17.775 5.26456H8.77315C6.83825 5.26456 5.88002 6.2228 5.88002 8.12085V15.2155L5.45619 15.2892C4.54402 15.455 3.95433 15.0589 3.78848 14.119ZM7.36344 8.20377C7.36344 7.24553 7.8702 6.74799 8.79158 6.74799H21.3316C22.2438 6.74799 22.7597 7.24553 22.7597 8.20377V15.3813L19.323 12.1288C18.9636 11.7972 18.5214 11.6313 18.0699 11.6313C17.6184 11.6313 17.213 11.7787 16.826 12.1197L13.1037 15.4181L11.6295 14.0822C11.2701 13.7597 10.9016 13.6123 10.5054 13.6123C10.146 13.6123 9.80513 13.7597 9.44576 14.0638L7.36344 15.8789V8.20377ZM12.4402 12.3316C13.5182 12.3316 14.3936 11.4378 14.3936 10.3598C14.3936 9.30022 13.5182 8.40648 12.4402 8.40648C11.3623 8.40648 10.4961 9.30022 10.4961 10.3598C10.4961 11.4378 11.3623 12.3316 12.4402 12.3316Z" fill="white"/>
</svg>
