<svg width="25" height="26" viewBox="0 0 25 26" fill="none" xmlns="http://www.w3.org/2000/svg">
<g clip-path="url(#clip0_833_705)">
<path d="M12.5 24.793C18.9336 24.793 24.2539 19.4727 24.2539 13.0391C24.2539 6.59375 18.9336 1.28516 12.4883 1.28516C6.05469 1.28516 0.746094 6.59375 0.746094 13.0391C0.746094 19.4727 6.06641 24.793 12.5 24.793ZM12.5 23.2695C6.82812 23.2695 2.26953 18.6992 2.26953 13.0391C2.26953 7.36719 6.82812 2.79688 12.4883 2.79688C18.1602 2.79688 22.7305 7.36719 22.7422 13.0391C22.7422 18.6992 18.1719 23.2695 12.5 23.2695Z" fill="white"/>
<path d="M12.1007 9.07031C12.9562 9.07031 13.6242 8.39062 13.6242 7.53515C13.6242 6.67968 12.9562 6 12.1007 6C11.257 6 10.5773 6.67968 10.5773 7.53515C10.5773 8.39062 11.257 9.07031 12.1007 9.07031ZM10.1554 19.6875H14.925C15.4054 19.6875 15.7804 19.3359 15.7804 18.8554C15.7804 18.3984 15.4054 18.0351 14.925 18.0351H13.4718V12.0703C13.4718 11.4375 13.1554 11.0156 12.5578 11.0156H10.3546C9.87424 11.0156 9.49921 11.3789 9.49921 11.8359C9.49921 12.3164 9.87424 12.6679 10.3546 12.6679H11.6085V18.0351H10.1554C9.67499 18.0351 9.29999 18.3984 9.29999 18.8554C9.29999 19.3359 9.67499 19.6875 10.1554 19.6875Z" fill="white"/>
</g>
<defs>
<clipPath id="clip0_833_705">
<rect width="24" height="25" fill="white" transform="translate(0.5 0.5)"/>
</clipPath>
</defs>
</svg>
